# xmcd CD database file
#
# Track frame offsets:
#	150
#	13455
#	26507
#	40382
#	61032
#	70677
#	87775
#	98472
#	115830
#	125172
#	140742
#	156502
#
# Disc length: 2424 seconds
#
# Revision: 0
# Processed by: cddbd v1.4PL0 Copyright (c) Steve Scherf et al.
# Submitted via: Feurio! 1.66 - http://www.feurio.com
#
DISCID=a209760c
DTITLE=Rattelsnake Annie - I Ride Alone
DYEAR=1900
DGENRE=
TTITLE0=I RIDE ALONE
TTITLE1=WOMAN OF WALTZES
TTITLE2=CITY LIGHTS
TTITLE3=VAYA CON DIOS
TTITLE4=I'LL BE HERE
TTITLE5=FACE OF THE RIDER
TTITLE6=BLUES STAY AWAY FROM ME
TTITLE7=MEMORIES
TTITLE8=STAY ALL NIGHT
TTITLE9=REBEL CHILD
TTITLE10=YARD SALE
TTITLE11=A PRAYER IN THE EARLY MORNING
EXTD=
EXTT0=
EXTT1=
EXTT2=
EXTT3=
EXTT4=
EXTT5=
EXTT6=
EXTT7=
EXTT8=
EXTT9=
EXTT10=
EXTT11=
PLAYORDER=
